<svg xmlns:dc="http://purl.org/dc/elements/1.1/" xmlns:cc="http://creativecommons.org/ns#" xmlns:rdf="http://www.w3.org/1999/02/22-rdf-syntax-ns#" xmlns:svg="http://www.w3.org/2000/svg" xmlns="http://www.w3.org/2000/svg" xmlns:sodipodi="http://sodipodi.sourceforge.net/DTD/sodipodi-0.dtd" xmlns:inkscape="http://www.inkscape.org/namespaces/inkscape" width="785" height="273" version="1.1" inkscape:version="0.91 r13725" sodipodi:docname="Showtime_1997.svg" style=""><rect id="backgroundrect" width="100%" height="100%" x="0" y="0" fill="none" stroke="none"/>
  <metadata id="metadata15">
    <rdf:RDF>
      <cc:Work rdf:about="">
        <dc:format>image/svg+xml</dc:format>
        <dc:type rdf:resource="http://purl.org/dc/dcmitype/StillImage"/>
      </cc:Work>
    </rdf:RDF>
  </metadata>
  <defs id="defs13"/>
  <sodipodi:namedview pagecolor="#ffffff" bordercolor="#666666" borderopacity="1" objecttolerance="10" gridtolerance="10" guidetolerance="10" inkscape:pageopacity="0" inkscape:pageshadow="2" inkscape:window-width="1366" inkscape:window-height="709" id="namedview11" showgrid="false" inkscape:zoom="0.45350318" inkscape:cx="353.91152" inkscape:cy="136.5" inkscape:window-x="-8" inkscape:window-y="-8" inkscape:window-maximized="1" inkscape:current-layer="layer1"/>
  
<g class="currentLayer" style=""><title>Layer 1</title><g inkscape:label="Layer 1" inkscape:groupmode="layer" id="layer1" class="selected" fill="#618e8e" fill-opacity="1">
    <path id="path3680" d="m26.985007509765637,199.95696564453124 c8.71861,0 14.91168,-7.66447 14.91168,-18.83175 c0,-23.10321 -20.23727,-27.60526 -41.89104,-47.12879 c-0.30746000000000007,39.57413 11.95789,65.96054 26.97936,65.96054 " style="fill-rule: evenodd; stroke: none;" fill="#618e8e" fill-opacity="1"/>
    <path id="path3682" d="m180.2633875097656,228.5175456445312 l-31.22886,0 l0,-77.7098 l-33.73245,0 l0,77.7098 l-31.29474,0 l0,-179.30243 l31.23984,0 l0,72.19753 l33.78735,0 l0,-72.19753 l31.22886,0 l0,179.30243 zm13.01203,-90.12888 c0,-54.69443 20.21531,-89.2065 44.38364,-92.8301 c-24.15735,-29.70256 -64.50013,-45.55856 -101.16439,-45.55856 c-40.34277,0 -76.60076,17.5031 -101.58165,45.31699 c23.83891,4.74362 31.93162,24.72834 31.93162,55.63877 l-29.14255,0 c0,-18.2388 -3.79929,-27.68213 -14.59323,-27.68213 c-4.87539,0 -8.66371,2.45966 -10.87081,6.64327 c-0.31844000000000006,0.7247200000000001 -0.6368700000000002,1.40552 -0.94433,2.13024 c-0.84551,2.33887 -1.2957100000000001,5.02912 -1.2957100000000001,8.04879 c0,37.81723 62.10634,35.93955 62.10634,94.04895 c0,22.70791 -17.40427,43.88951 -36.99368,43.88951 c25.74954,28.13233 60.89848,44.96561 101.384,44.96561 c39.3655,0 74.82189,-16.67955 99.73691,-43.3295 c-22.98243,-5.76482 -42.95616,-38.81647 -42.95616,-91.28184 " style="fill-rule: evenodd; stroke: none;" fill="#618e8e" fill-opacity="1"/>
    <path id="path3684" d="m224.31760750976562,135.47880564453123 c0,-30.17472 8.77351,-60.36043 24.80521,-60.36043 c19.07332,0 23.87185,46.63467 23.87185,61.39261 c0,32.32692 -10.168050000000001,61.54634 -23.87185,61.54634 c-16.44896,0 -24.80521,-30.76768 -24.80521,-62.57852 " style="fill-rule: evenodd; stroke: none;" fill="#618e8e" fill-opacity="1"/>
    <path id="path3686" d="m536.2987845097656,51.69673564453126 l-131.66853,0 l-12.506919,102.38323 l-0.47216600000000003,0 l-13.97832,-102.38323 l-28.648422,0 l-15.18619,102.38323 l-0.5051,0 l-11.26611,-102.38323 l-28.90098,0 l23.26792,174.40507 l27.93468,0 l15.680318,-110.47595 l0.483147,0 l15.186188,110.47595 l28.911954,0 l19.249014,-147.46963 l27.0452501,0 l0,147.46963 l31.8218169,0 l0,-147.46963 l29.175488,0 l0,147.46963 l31.843778,0 l0,-174.40507 l-7.466817,0 " style="fill-rule: nonzero; stroke: none;" fill="#618e8e" fill-opacity="1"/>
    <path id="path3688" d="m559.4019975097656,51.69673564453126 l42.3632,0 l14.20892,89.40415 l0.48314,0 l14.94462,-89.40415 l41.39691,0 l0,174.40507 l-28.39587,0 l0,-127.86924 l-0.51609,0 l-21.53298,127.86924 l-17.64584,0 l-21.31337,-127.86924 l-0.47217000000000003,0 l0,127.86924 l-23.52047,0 l0,-174.40507 " style="fill-rule: nonzero; stroke: none;" fill="#618e8e" fill-opacity="1"/>
    <path id="path3690" d="m688.4461575097656,51.69673564453126 l72.01086,0 l0,26.93544 l-40.16708,0 l0,44.55933 l29.65863,0 l0,28.41782 l-29.65863,0 l0,47.53508 l41.92398,0 l0,26.9574 l-73.76776,0 l0,-174.40507 " style="fill-rule: nonzero; stroke: none;" fill="#618e8e" fill-opacity="1"/>
    <path id="path3692" d="m782.3523575097656,219.43657564453122 c0,4.20557 -3.00868,7.03857 -6.53346,7.03857 l0,-0.022000000000000006 c-3.6236,0.022000000000000006 -6.54445,-2.81104 -6.54445,-7.01661 c0,-4.19459 2.92085,-7.00563 6.54445,-7.00563 c3.52478,0 6.53346,2.81104 6.53346,7.00563 zm2.63535,0 c0,-5.7758 -4.32636,-9.13587 -9.16881,-9.13587 c-4.86441,0 -9.17979,3.36007 -9.17979,9.13587 c0,5.7758 4.31538,9.14685 9.17979,9.14685 c4.84245,0 9.16881,-3.37105 9.16881,-9.14685 zm-10.69512,0.7686400000000002 l0.99924,0 l2.27299,4.12871 l2.4926,0 l-2.51457,-4.29342 c1.29572,-0.09880000000000003 2.37182,-0.7466800000000001 2.37182,-2.55848 c0,-2.24004 -1.50435,-2.97575 -4.02989,-2.97575 l-3.68948,0 l0,9.82765 l2.09729,0 l0,-4.12871 zm0,-1.6580700000000002 l0,-2.37181 l1.48239,0 c0.7906000000000001,0 1.8886600000000002,0.07690000000000001 1.8886600000000002,1.08708 c0,1.08708 -0.56001,1.28473 -1.49336,1.28473 l-1.8776900000000003,0 " style="fill-rule: nonzero; stroke: none;" fill="#618e8e" fill-opacity="1"/>
  </g></g></svg>