<svg xmlns:dc="http://purl.org/dc/elements/1.1/" xmlns:cc="http://creativecommons.org/ns#" xmlns:rdf="http://www.w3.org/1999/02/22-rdf-syntax-ns#" xmlns:svg="http://www.w3.org/2000/svg" xmlns="http://www.w3.org/2000/svg" xmlns:sodipodi="http://sodipodi.sourceforge.net/DTD/sodipodi-0.dtd" xmlns:inkscape="http://www.inkscape.org/namespaces/inkscape" width="600" height="134.01478576660156" version="1.1" inkscape:version="0.48.4 r9939" sodipodi:docname="HBO Sports 2013.svg" style=""><rect id="backgroundrect" width="100%" height="100%" x="0" y="0" fill="none" stroke="none"/>
  <defs id="defs4"/>
  <sodipodi:namedview id="base" pagecolor="#ffffff" bordercolor="#666666" borderopacity="1.0" inkscape:pageopacity="0.0" inkscape:pageshadow="2" inkscape:zoom="0.98994949" inkscape:cx="477.21516" inkscape:cy="96.813458" inkscape:document-units="px" inkscape:current-layer="layer1" showgrid="false" inkscape:window-width="1366" inkscape:window-height="706" inkscape:window-x="-8" inkscape:window-y="-8" inkscape:window-maximized="1" fit-margin-top="0" fit-margin-left="0" fit-margin-right="0" fit-margin-bottom="0"/>
  <metadata id="metadata7">
    <rdf:RDF>
      <cc:Work rdf:about="">
        <dc:format>image/svg+xml</dc:format>
        <dc:type rdf:resource="http://purl.org/dc/dcmitype/StillImage"/>
        <dc:title/>
      </cc:Work>
    </rdf:RDF>
  </metadata>
  
<g class="currentLayer" style=""><title>Layer 1</title><g inkscape:label="Layer 1" inkscape:groupmode="layer" id="layer1" class="" fill="#618e8e" fill-opacity="1">
    <g id="g3911" fill="#618e8e" fill-opacity="1">
      <path id="path3897" d="m533.81457,101.12818896484373 c-18.38207,0 -33.30572,-14.923668 -33.30572,-33.305779 c0,-18.391953 14.92365,-33.295822 33.30572,-33.295822 c18.39203,0 33.28595,14.90387 33.28595,33.295822 c0,18.382111 -14.89392,33.305779 -33.28595,33.305779 M533.56689,1.1217419648437499 c-36.70474,0 -66.45297,29.758148 -66.45297,66.452942 c0,36.684875 29.74823,66.433145 66.45297,66.433145 C570.25171,134.00782896484372 600,104.25959896484369 600,67.57468396484376 C600,30.879889964843755 570.25171,1.1217419648437499 533.56689,1.1217419648437499 " inkscape:connector-curvature="0" style="" fill="#618e8e" fill-opacity="1"/>
      <path id="path3899" d="m533.56488,41.450339964843806 c-14.42816,0 -26.13129,11.683273 -26.13129,26.121368 c0,14.418297 11.70313,26.121407 26.13129,26.121407 c14.42822,0 26.1214,-11.70311 26.1214,-26.121407 c0,-14.438095 -11.69318,-26.121368 -26.1214,-26.121368 " inkscape:connector-curvature="0" style="" fill="#618e8e" fill-opacity="1"/>
      <path id="path3901" d="m398.0141,85.59706896484374 l37.38849,0 c-8.34378,24.04038 -31.08603,20.03696 -31.08603,20.03696 c-18.37219,-0.3369100000000002 -26.99344,-15.359684 -26.99344,-15.359684 c-15.36957,-26.725883 0,-46.406097 0,-46.406097 c7.00598,-12.35714 25.368290000000002,-13.694878000000001 25.368290000000002,-13.694878000000001 c22.36572,0 30.0455,16.697464 30.0455,16.697464 l34.71292,0 C458.75922,20.313407964843805 433.78732,1.1187659648437602 404.31656,1.1187659648437602 c-36.68488,0 -66.42322,29.758148 -66.42322,66.452942 c0,36.684871 29.73834,66.443061 66.42322,66.443061 c36.7146,0 66.45294,-29.75815 66.45294,-66.443061 c0,-2.487259 -0.14862,-4.934921 -0.4161700000000001,-7.342911 l-72.33923,0 l0,25.368271 z" inkscape:connector-curvature="0" style="" fill="#618e8e" fill-opacity="1"/>
      <path id="path3903" d="m256.59598000000005,92.18787396484379 c14.37866,0 26.00247,-11.653557 26.00247,-26.022301 c0,-14.378624 -11.62381,-26.032181 -26.00247,-26.032181 c-14.36872,0 -26.02228,11.653557 -26.02228,26.032181 c0,14.368744 11.65356,26.022301 26.02228,26.022301 M223.48842000000002,66.1655729648437 c0,-18.302765 14.83449,-33.107529 33.10756,-33.107529 c18.28299,0 33.11746,14.804764 33.11746,33.107529 c0,18.273087 -14.83447,33.097649 -33.11746,33.097649 c-18.27307,0 -33.10756,-14.824562 -33.10756,-33.097649 m-46.08898,0 c4.08271,-0.535088 10.91033,-5.202446 13.31833,-8.205032 c-0.8423,3.716049 -0.90175,14.448013 0.07930000000000002,18.144264 c-2.74492,-4.221458 -9.24555,-9.423943 -13.39762,-9.939232 M153.59686,31.115790964843768 c5.20247,0 9.29509,5.133095 9.29509,10.989571 c0,5.836716 -4.09262,10.989609 -9.29509,10.989609 l-17.88661,0 l0,-21.979179 l17.88661,0 zm-0.06940000000000003,48.823967 c5.2124,0 9.30499,5.133133 9.30499,10.999527 c0,5.846596 -4.09259,10.979694 -9.30499,10.979694 l-17.87669,0 l0,-21.979221 l17.87669,0 zm103.04863,52.926511 c36.43716,-0.010000000000000004 66.08633,-30.29326 66.07642,-66.720494 C322.65251,28.925773964843756 293.01324999999997,0.01982896484378216 256.57609,0.000030964843745096005 C220.16869999999994,-0.039604035156230566 201.57853,26.745674964843715 196.99043000000006,37.5668259648437 C197.03003,21.345016964843808 181.03616999999997,2.1800919648437684 162.31716,2.1503749648437633 l-60.28926,0 l0,130.051954 l56.20655,0.0198 c22.67288,0 38.79562,-19.63066 38.81543,-36.466864 c5.19256,10.593224 23.11882,37.130824 59.52621,37.110984 m-161.910911,-0.61441 l-35.337196,0 l0,-50.459014 l-22.940441,0 l0,50.459014 l-36.268688,0 L-0.000002000000108637323,2.1701349648437827 L36.38760000000002,2.1701349648437827 l0,48.397865 l22.940441,0 l0,-48.397865 l35.337196,0 l0,130.081664 l-0.000038000000000000016,0 z" inkscape:connector-curvature="0" style="" fill="#618e8e" fill-opacity="1"/>
    </g>
  </g></g></svg>