<?xml version="1.0" encoding="UTF-8"?>
<svg xmlns="http://www.w3.org/2000/svg" xmlns:xlink="http://www.w3.org/1999/xlink" viewBox="0 0 32 32" version="1.1" width="500px" height="500px">
<g id="surface1">
<path style=" " d="M 31 14.140625 L 28.609375 14.140625 L 28.609375 18.125 C 28.609375 18.304688 28.542969 18.457031 28.429688 18.582031 C 28.320313 18.695313 28.167969 18.75 27.988281 18.761719 L 26.597656 18.761719 C 26.402344 18.75 26.25 18.695313 26.140625 18.582031 C 26.027344 18.457031 25.960938 18.304688 25.960938 18.125 L 25.960938 14.140625 L 23.570313 14.140625 L 23.570313 18.332031 C 23.585938 18.890625 23.679688 19.375 23.917969 19.761719 C 24.152344 20.152344 24.457031 20.445313 24.859375 20.636719 C 25.277344 20.832031 25.75 20.945313 26.289063 20.945313 L 28.609375 20.945313 L 28.609375 20.914063 C 29.109375 20.914063 29.539063 20.804688 29.902344 20.597656 C 30.25 20.371094 30.527344 20.066406 30.710938 19.679688 C 30.902344 19.289063 31 18.832031 31 18.332031 Z M 7.097656 14.390625 C 6.679688 14.207031 6.222656 14.125 5.722656 14.140625 L 4.179688 14.140625 L 3.582031 14.210938 C 3.445313 14.25 3.375 14.277344 3.375 14.277344 L 3.375 11.054688 L 1 11.054688 L 1 20.945313 L 3.375 20.945313 L 3.375 16.945313 C 3.390625 16.777344 3.445313 16.613281 3.570313 16.5 C 3.695313 16.390625 3.832031 16.320313 4.027344 16.320313 L 5.414063 16.320313 C 5.582031 16.320313 5.734375 16.390625 5.859375 16.5 C 5.984375 16.613281 6.039063 16.777344 6.054688 16.945313 L 6.054688 20.945313 L 8.429688 20.945313 L 8.429688 16.640625 C 8.429688 16.042969 8.304688 15.554688 8.070313 15.179688 C 7.820313 14.820313 7.5 14.554688 7.097656 14.390625 Z M 15.179688 18.125 C 15.164063 18.304688 15.109375 18.457031 15 18.582031 C 14.875 18.695313 14.722656 18.75 14.539063 18.761719 L 13.152344 18.761719 C 12.972656 18.75 12.820313 18.695313 12.707031 18.582031 C 12.582031 18.457031 12.527344 18.304688 12.515625 18.125 L 12.515625 14.140625 L 10.140625 14.140625 L 10.140625 18.332031 C 10.140625 18.890625 10.25 19.375 10.472656 19.761719 C 10.695313 20.152344 11.015625 20.445313 11.414063 20.636719 C 11.832031 20.832031 12.289063 20.945313 12.847656 20.945313 L 15.179688 20.945313 L 15.179688 20.914063 C 15.679688 20.914063 16.109375 20.804688 16.457031 20.597656 C 16.804688 20.371094 17.082031 20.066406 17.277344 19.679688 C 17.457031 19.289063 17.554688 18.832031 17.570313 18.332031 L 17.570313 14.136719 L 15.179688 14.136719 Z M 19.375 20.945313 L 21.75 20.945313 L 21.75 11.054688 L 19.375 11.054688 Z "/>
</g>
</svg>
